<svg xmlns="http://www.w3.org/2000/svg" xmlns:xlink="http://www.w3.org/1999/xlink" width="500" zoomAndPan="magnify" viewBox="0 0 375 374.999991" height="500" preserveAspectRatio="xMidYMid meet" version="1.0"><defs><clipPath id="ba38d81350"><path d="M 72.308594 8.445312 L 147 8.445312 L 147 73.695312 L 72.308594 73.695312 Z M 72.308594 8.445312 " clip-rule="nonzero"/></clipPath><clipPath id="4c9e3e9f96"><path d="M 72.308594 8.445312 L 147.308594 8.445312 L 147.308594 73.695312 L 72.308594 73.695312 Z M 72.308594 8.445312 " clip-rule="nonzero"/></clipPath><clipPath id="0e57904cf5"><path d="M 128 171.222656 L 202.820312 171.222656 L 202.820312 236 L 128 236 Z M 128 171.222656 " clip-rule="nonzero"/></clipPath><clipPath id="13ad307539"><path d="M 127.820312 171.222656 L 202.820312 171.222656 L 202.820312 236.472656 L 127.820312 236.472656 Z M 127.820312 171.222656 " clip-rule="nonzero"/></clipPath><clipPath id="fa52619126"><path d="M 72.308594 73.554688 L 147 73.554688 L 147 138.804688 L 72.308594 138.804688 Z M 72.308594 73.554688 " clip-rule="nonzero"/></clipPath><clipPath id="6f7c0c6a6d"><path d="M 72.308594 73.554688 L 147.308594 73.554688 L 147.308594 138.804688 L 72.308594 138.804688 Z M 72.308594 73.554688 " clip-rule="nonzero"/></clipPath><clipPath id="1da00112de"><path d="M 72.308594 139 L 147 139 L 147 203.917969 L 72.308594 203.917969 Z M 72.308594 139 " clip-rule="nonzero"/></clipPath><clipPath id="eed1153a98"><path d="M 72.308594 138.667969 L 147.308594 138.667969 L 147.308594 203.917969 L 72.308594 203.917969 Z M 72.308594 138.667969 " clip-rule="nonzero"/></clipPath><clipPath id="5e2fa05d17"><path d="M 72.308594 204 L 147 204 L 147 269 L 72.308594 269 Z M 72.308594 204 " clip-rule="nonzero"/></clipPath><clipPath id="6a567b3ea9"><path d="M 72.308594 203.777344 L 147.308594 203.777344 L 147.308594 269 L 72.308594 269 Z M 72.308594 203.777344 " clip-rule="nonzero"/></clipPath><clipPath id="30e7d72267"><path d="M 72.308594 269 L 147 269 L 147 334 L 72.308594 334 Z M 72.308594 269 " clip-rule="nonzero"/></clipPath><clipPath id="3145e59116"><path d="M 72.308594 268.890625 L 147.308594 268.890625 L 147.308594 334 L 72.308594 334 Z M 72.308594 268.890625 " clip-rule="nonzero"/></clipPath><clipPath id="77c5a459c5"><path d="M 128 41 L 202.820312 41 L 202.820312 106 L 128 106 Z M 128 41 " clip-rule="nonzero"/></clipPath><clipPath id="6df9d22768"><path d="M 127.820312 41 L 202.820312 41 L 202.820312 106.25 L 127.820312 106.25 Z M 127.820312 41 " clip-rule="nonzero"/></clipPath><clipPath id="58db8dae71"><path d="M 184 73.554688 L 259 73.554688 L 259 139 L 184 139 Z M 184 73.554688 " clip-rule="nonzero"/></clipPath><clipPath id="189b6601c4"><path d="M 183.585938 73.554688 L 259.335938 73.554688 L 259.335938 139.554688 L 183.585938 139.554688 Z M 183.585938 73.554688 " clip-rule="nonzero"/></clipPath><clipPath id="1e9aa1b9b0"><path d="M 183.585938 138.667969 L 260.085938 138.667969 L 260.085938 205.417969 L 183.585938 205.417969 Z M 183.585938 138.667969 " clip-rule="nonzero"/></clipPath><clipPath id="67e0986d4d"><path d="M 241 172 L 315.75 172 L 315.75 237 L 241 237 Z M 241 172 " clip-rule="nonzero"/></clipPath><clipPath id="a94307816e"><path d="M 240.75 171.859375 L 315.75 171.859375 L 315.75 237 L 240.75 237 Z M 240.75 171.859375 " clip-rule="nonzero"/></clipPath><clipPath id="4a0dd90ddf"><path d="M 183.585938 203.777344 L 260.085938 203.777344 L 260.085938 270.527344 L 183.585938 270.527344 Z M 183.585938 203.777344 " clip-rule="nonzero"/></clipPath><clipPath id="0316b2cba6"><path d="M 184 8.445312 L 259 8.445312 L 259 74 L 184 74 Z M 184 8.445312 " clip-rule="nonzero"/></clipPath><clipPath id="c427d98ea9"><path d="M 183.585938 8.445312 L 259.335938 8.445312 L 259.335938 74.445312 L 183.585938 74.445312 Z M 183.585938 8.445312 " clip-rule="nonzero"/></clipPath><clipPath id="cd538d77e4"><path d="M 240.015625 41.316406 L 315.765625 41.316406 L 315.765625 107 L 240.015625 107 Z M 240.015625 41.316406 " clip-rule="nonzero"/></clipPath><clipPath id="d80232dfbc"><path d="M 240.015625 41.316406 L 315.765625 41.316406 L 315.765625 107.316406 L 240.015625 107.316406 Z M 240.015625 41.316406 " clip-rule="nonzero"/></clipPath><clipPath id="84e2f15e79"><path d="M 128 301.445312 L 202.820312 301.445312 L 202.820312 366.695312 L 128 366.695312 Z M 128 301.445312 " clip-rule="nonzero"/></clipPath><clipPath id="f5cdd9a0fa"><path d="M 127.820312 301.445312 L 202.820312 301.445312 L 202.820312 366.695312 L 127.820312 366.695312 Z M 127.820312 301.445312 " clip-rule="nonzero"/></clipPath></defs><g clip-path="url(#ba38d81350)"><path fill="#ff751f" d="M 128.386719 8.871094 L 91.304688 8.871094 L 72.761719 40.988281 L 91.304688 73.109375 L 128.386719 73.109375 L 146.929688 40.988281 Z M 128.386719 8.871094 " fill-opacity="1" fill-rule="nonzero"/></g><g clip-path="url(#4c9e3e9f96)"><path fill="#000000" d="M 128.386719 73.542969 L 91.304688 73.542969 C 91.148438 73.542969 91.007812 73.457031 90.921875 73.332031 L 72.378906 41.214844 C 72.308594 41.078125 72.308594 40.921875 72.378906 40.78125 L 90.921875 8.664062 C 90.992188 8.523438 91.148438 8.453125 91.304688 8.453125 L 128.386719 8.453125 C 128.542969 8.453125 128.683594 8.542969 128.769531 8.664062 L 147.3125 40.78125 C 147.378906 40.921875 147.378906 41.078125 147.3125 41.214844 L 128.769531 73.332031 C 128.683594 73.457031 128.542969 73.542969 128.386719 73.542969 Z M 91.5625 72.675781 L 128.144531 72.675781 L 146.441406 40.988281 L 128.144531 9.304688 L 91.5625 9.304688 L 73.265625 40.988281 Z M 91.5625 72.675781 " fill-opacity="1" fill-rule="nonzero"/></g><g clip-path="url(#0e57904cf5)"><path fill="#ff751f" d="M 183.898438 171.648438 L 146.8125 171.648438 L 128.269531 203.769531 L 146.8125 235.886719 L 183.898438 235.886719 L 202.4375 203.769531 Z M 183.898438 171.648438 " fill-opacity="1" fill-rule="nonzero"/></g><g clip-path="url(#13ad307539)"><path fill="#000000" d="M 183.898438 236.320312 L 146.8125 236.320312 C 146.65625 236.320312 146.519531 236.234375 146.429688 236.113281 L 127.890625 203.992188 C 127.820312 203.855469 127.820312 203.699219 127.890625 203.558594 L 146.429688 171.441406 C 146.5 171.300781 146.65625 171.234375 146.8125 171.234375 L 183.898438 171.234375 C 184.054688 171.234375 184.191406 171.320312 184.277344 171.441406 L 202.820312 203.558594 C 202.890625 203.699219 202.890625 203.855469 202.820312 203.992188 L 184.277344 236.113281 C 184.191406 236.234375 184.054688 236.320312 183.898438 236.320312 Z M 147.074219 235.453125 L 183.652344 235.453125 L 201.953125 203.769531 L 183.652344 172.082031 L 147.074219 172.082031 L 128.773438 203.769531 Z M 147.074219 235.453125 " fill-opacity="1" fill-rule="nonzero"/></g><g clip-path="url(#fa52619126)"><path fill="#ff751f" d="M 128.386719 73.984375 L 91.304688 73.984375 L 72.761719 106.101562 L 91.304688 138.21875 L 128.386719 138.21875 L 146.929688 106.101562 Z M 128.386719 73.984375 " fill-opacity="1" fill-rule="nonzero"/></g><g clip-path="url(#6f7c0c6a6d)"><path fill="#000000" d="M 128.386719 138.652344 L 91.304688 138.652344 C 91.148438 138.652344 91.007812 138.566406 90.921875 138.445312 L 72.378906 106.328125 C 72.308594 106.1875 72.308594 106.03125 72.378906 105.894531 L 90.921875 73.773438 C 90.992188 73.636719 91.148438 73.566406 91.304688 73.566406 L 128.386719 73.566406 C 128.542969 73.566406 128.683594 73.652344 128.769531 73.773438 L 147.3125 105.894531 C 147.378906 106.03125 147.378906 106.1875 147.3125 106.328125 L 128.769531 138.445312 C 128.683594 138.566406 128.542969 138.652344 128.386719 138.652344 Z M 91.5625 137.785156 L 128.144531 137.785156 L 146.441406 106.101562 L 128.144531 74.417969 L 91.5625 74.417969 L 73.265625 106.101562 Z M 91.5625 137.785156 " fill-opacity="1" fill-rule="nonzero"/></g><g clip-path="url(#1da00112de)"><path fill="#ff751f" d="M 128.386719 139.09375 L 91.304688 139.09375 L 72.761719 171.210938 L 91.304688 203.332031 L 128.386719 203.332031 L 146.929688 171.210938 Z M 128.386719 139.09375 " fill-opacity="1" fill-rule="nonzero"/></g><g clip-path="url(#eed1153a98)"><path fill="#000000" d="M 128.386719 203.765625 L 91.304688 203.765625 C 91.148438 203.765625 91.007812 203.679688 90.921875 203.554688 L 72.378906 171.4375 C 72.308594 171.300781 72.308594 171.144531 72.378906 171.003906 L 90.921875 138.886719 C 90.992188 138.746094 91.148438 138.675781 91.304688 138.675781 L 128.386719 138.675781 C 128.542969 138.675781 128.683594 138.765625 128.769531 138.886719 L 147.3125 171.003906 C 147.378906 171.144531 147.378906 171.300781 147.3125 171.4375 L 128.769531 203.554688 C 128.683594 203.679688 128.542969 203.765625 128.386719 203.765625 Z M 91.5625 202.898438 L 128.144531 202.898438 L 146.441406 171.210938 L 128.144531 139.527344 L 91.5625 139.527344 L 73.265625 171.210938 Z M 91.5625 202.898438 " fill-opacity="1" fill-rule="nonzero"/></g><g clip-path="url(#5e2fa05d17)"><path fill="#ff751f" d="M 128.386719 204.207031 L 91.304688 204.207031 L 72.761719 236.324219 L 91.304688 268.441406 L 128.386719 268.441406 L 146.929688 236.324219 Z M 128.386719 204.207031 " fill-opacity="1" fill-rule="nonzero"/></g><g clip-path="url(#6a567b3ea9)"><path fill="#000000" d="M 128.386719 268.875 L 91.304688 268.875 C 91.148438 268.875 91.007812 268.789062 90.921875 268.667969 L 72.378906 236.550781 C 72.308594 236.410156 72.308594 236.253906 72.378906 236.117188 L 90.921875 203.996094 C 90.992188 203.859375 91.148438 203.789062 91.304688 203.789062 L 128.386719 203.789062 C 128.542969 203.789062 128.683594 203.875 128.769531 203.996094 L 147.3125 236.117188 C 147.378906 236.253906 147.378906 236.410156 147.3125 236.550781 L 128.769531 268.667969 C 128.683594 268.789062 128.542969 268.875 128.386719 268.875 Z M 91.5625 268.007812 L 128.144531 268.007812 L 146.441406 236.324219 L 128.144531 204.640625 L 91.5625 204.640625 L 73.265625 236.324219 Z M 91.5625 268.007812 " fill-opacity="1" fill-rule="nonzero"/></g><g clip-path="url(#30e7d72267)"><path fill="#ff751f" d="M 128.386719 269.316406 L 91.304688 269.316406 L 72.761719 301.433594 L 91.304688 333.554688 L 128.386719 333.554688 L 146.929688 301.433594 Z M 128.386719 269.316406 " fill-opacity="1" fill-rule="nonzero"/></g><g clip-path="url(#3145e59116)"><path fill="#000000" d="M 128.386719 333.988281 L 91.304688 333.988281 C 91.148438 333.988281 91.007812 333.902344 90.921875 333.78125 L 72.378906 301.660156 C 72.308594 301.523438 72.308594 301.367188 72.378906 301.226562 L 90.921875 269.109375 C 90.992188 268.96875 91.148438 268.898438 91.304688 268.898438 L 128.386719 268.898438 C 128.542969 268.898438 128.683594 268.988281 128.769531 269.109375 L 147.3125 301.226562 C 147.378906 301.367188 147.378906 301.523438 147.3125 301.660156 L 128.769531 333.78125 C 128.683594 333.902344 128.542969 333.988281 128.386719 333.988281 Z M 91.5625 333.121094 L 128.144531 333.121094 L 146.441406 301.433594 L 128.144531 269.75 L 91.5625 269.75 L 73.265625 301.433594 Z M 91.5625 333.121094 " fill-opacity="1" fill-rule="nonzero"/></g><g clip-path="url(#77c5a459c5)"><path fill="#ff751f" d="M 183.898438 41.425781 L 146.8125 41.425781 L 128.269531 73.546875 L 146.8125 105.664062 L 183.898438 105.664062 L 202.4375 73.546875 Z M 183.898438 41.425781 " fill-opacity="1" fill-rule="nonzero"/></g><g clip-path="url(#6df9d22768)"><path fill="#000000" d="M 183.898438 106.097656 L 146.8125 106.097656 C 146.65625 106.097656 146.519531 106.011719 146.429688 105.890625 L 127.890625 73.769531 C 127.820312 73.632812 127.820312 73.476562 127.890625 73.335938 L 146.429688 41.21875 C 146.5 41.078125 146.65625 41.011719 146.8125 41.011719 L 183.898438 41.011719 C 184.054688 41.011719 184.191406 41.097656 184.277344 41.21875 L 202.820312 73.335938 C 202.890625 73.476562 202.890625 73.632812 202.820312 73.769531 L 184.277344 105.890625 C 184.191406 106.011719 184.054688 106.097656 183.898438 106.097656 Z M 147.074219 105.230469 L 183.652344 105.230469 L 201.953125 73.546875 L 183.652344 41.859375 L 147.074219 41.859375 L 128.773438 73.546875 Z M 147.074219 105.230469 " fill-opacity="1" fill-rule="nonzero"/></g><g clip-path="url(#58db8dae71)"><path fill="#ff751f" d="M 240.214844 73.984375 L 202.765625 73.984375 L 184.042969 106.417969 L 202.765625 138.851562 L 240.214844 138.851562 L 258.9375 106.417969 Z M 240.214844 73.984375 " fill-opacity="1" fill-rule="nonzero"/></g><g clip-path="url(#189b6601c4)"><path fill="#000000" d="M 240.214844 139.289062 L 202.765625 139.289062 C 202.609375 139.289062 202.46875 139.203125 202.378906 139.078125 L 183.65625 106.644531 C 183.585938 106.503906 183.585938 106.347656 183.65625 106.207031 L 202.378906 73.773438 C 202.449219 73.632812 202.609375 73.5625 202.765625 73.5625 L 240.214844 73.5625 C 240.371094 73.5625 240.511719 73.648438 240.601562 73.773438 L 259.324219 106.207031 C 259.394531 106.347656 259.394531 106.503906 259.324219 106.644531 L 240.601562 139.078125 C 240.511719 139.203125 240.371094 139.289062 240.214844 139.289062 Z M 203.027344 138.414062 L 239.96875 138.414062 L 258.449219 106.417969 L 239.96875 74.421875 L 203.027344 74.421875 L 184.550781 106.417969 Z M 203.027344 138.414062 " fill-opacity="1" fill-rule="nonzero"/></g><path fill="#ff751f" d="M 240.757812 139.101562 L 202.949219 139.101562 L 184.046875 171.84375 L 202.949219 204.589844 L 240.757812 204.589844 L 259.660156 171.84375 Z M 240.757812 139.101562 " fill-opacity="1" fill-rule="nonzero"/><g clip-path="url(#1e9aa1b9b0)"><path fill="#000000" d="M 240.757812 205.03125 L 202.949219 205.03125 C 202.789062 205.03125 202.648438 204.945312 202.558594 204.820312 L 183.65625 172.074219 C 183.585938 171.933594 183.585938 171.773438 183.65625 171.632812 L 202.558594 138.886719 C 202.632812 138.746094 202.789062 138.675781 202.949219 138.675781 L 240.757812 138.675781 C 240.917969 138.675781 241.058594 138.761719 241.144531 138.886719 L 260.050781 171.632812 C 260.121094 171.773438 260.121094 171.933594 260.050781 172.074219 L 241.144531 204.820312 C 241.058594 204.945312 240.917969 205.03125 240.757812 205.03125 Z M 203.214844 204.148438 L 240.507812 204.148438 L 259.164062 171.84375 L 240.507812 139.542969 L 203.214844 139.542969 L 184.558594 171.84375 Z M 203.214844 204.148438 " fill-opacity="1" fill-rule="nonzero"/></g><g clip-path="url(#67e0986d4d)"><path fill="#ff751f" d="M 296.828125 172.285156 L 259.742188 172.285156 L 241.199219 204.40625 L 259.742188 236.523438 L 296.828125 236.523438 L 315.367188 204.40625 Z M 296.828125 172.285156 " fill-opacity="1" fill-rule="nonzero"/></g><g clip-path="url(#a94307816e)"><path fill="#000000" d="M 296.828125 236.957031 L 259.742188 236.957031 C 259.585938 236.957031 259.449219 236.871094 259.359375 236.75 L 240.820312 204.628906 C 240.75 204.492188 240.75 204.335938 240.820312 204.195312 L 259.359375 172.078125 C 259.429688 171.9375 259.585938 171.871094 259.742188 171.871094 L 296.828125 171.871094 C 296.984375 171.871094 297.121094 171.957031 297.207031 172.078125 L 315.75 204.195312 C 315.820312 204.335938 315.820312 204.492188 315.75 204.628906 L 297.207031 236.75 C 297.121094 236.871094 296.984375 236.957031 296.828125 236.957031 Z M 260.003906 236.089844 L 296.582031 236.089844 L 314.882812 204.40625 L 296.582031 172.71875 L 260.003906 172.71875 L 241.703125 204.40625 Z M 260.003906 236.089844 " fill-opacity="1" fill-rule="nonzero"/></g><path fill="#ff751f" d="M 240.757812 204.210938 L 202.949219 204.210938 L 184.046875 236.957031 L 202.949219 269.703125 L 240.757812 269.703125 L 259.660156 236.957031 Z M 240.757812 204.210938 " fill-opacity="1" fill-rule="nonzero"/><g clip-path="url(#4a0dd90ddf)"><path fill="#000000" d="M 240.757812 270.144531 L 202.949219 270.144531 C 202.789062 270.144531 202.648438 270.054688 202.558594 269.933594 L 183.65625 237.1875 C 183.585938 237.046875 183.585938 236.886719 183.65625 236.742188 L 202.558594 204 C 202.632812 203.855469 202.789062 203.785156 202.949219 203.785156 L 240.757812 203.785156 C 240.917969 203.785156 241.058594 203.875 241.144531 204 L 260.050781 236.742188 C 260.121094 236.886719 260.121094 237.046875 260.050781 237.1875 L 241.144531 269.933594 C 241.058594 270.054688 240.917969 270.144531 240.757812 270.144531 Z M 203.214844 269.257812 L 240.507812 269.257812 L 259.164062 236.957031 L 240.507812 204.652344 L 203.214844 204.652344 L 184.558594 236.957031 Z M 203.214844 269.257812 " fill-opacity="1" fill-rule="nonzero"/></g><g clip-path="url(#0316b2cba6)"><path fill="#ff751f" d="M 240.214844 8.871094 L 202.765625 8.871094 L 184.042969 41.304688 L 202.765625 73.742188 L 240.214844 73.742188 L 258.9375 41.304688 Z M 240.214844 8.871094 " fill-opacity="1" fill-rule="nonzero"/></g><g clip-path="url(#c427d98ea9)"><path fill="#000000" d="M 240.214844 74.179688 L 202.765625 74.179688 C 202.609375 74.179688 202.46875 74.089844 202.378906 73.96875 L 183.65625 41.535156 C 183.585938 41.394531 183.585938 41.234375 183.65625 41.09375 L 202.378906 8.660156 C 202.449219 8.519531 202.609375 8.449219 202.765625 8.449219 L 240.214844 8.449219 C 240.371094 8.449219 240.511719 8.539062 240.601562 8.660156 L 259.324219 41.09375 C 259.394531 41.234375 259.394531 41.394531 259.324219 41.535156 L 240.601562 73.96875 C 240.511719 74.089844 240.371094 74.179688 240.214844 74.179688 Z M 203.027344 73.300781 L 239.96875 73.300781 L 258.449219 41.304688 L 239.96875 9.308594 L 203.027344 9.308594 L 184.550781 41.304688 Z M 203.027344 73.300781 " fill-opacity="1" fill-rule="nonzero"/></g><g clip-path="url(#cd538d77e4)"><path fill="#ff751f" d="M 296.644531 41.746094 L 259.195312 41.746094 L 240.472656 74.179688 L 259.195312 106.613281 L 296.644531 106.613281 L 315.367188 74.179688 Z M 296.644531 41.746094 " fill-opacity="1" fill-rule="nonzero"/></g><g clip-path="url(#d80232dfbc)"><path fill="#000000" d="M 296.644531 107.050781 L 259.195312 107.050781 C 259.039062 107.050781 258.898438 106.964844 258.808594 106.84375 L 240.085938 74.40625 C 240.015625 74.269531 240.015625 74.109375 240.085938 73.96875 L 258.808594 41.535156 C 258.878906 41.394531 259.039062 41.324219 259.195312 41.324219 L 296.644531 41.324219 C 296.800781 41.324219 296.941406 41.414062 297.03125 41.535156 L 315.753906 73.96875 C 315.824219 74.109375 315.824219 74.269531 315.753906 74.40625 L 297.03125 106.84375 C 296.941406 106.964844 296.800781 107.050781 296.644531 107.050781 Z M 259.457031 106.175781 L 296.398438 106.175781 L 314.878906 74.179688 L 296.398438 42.183594 L 259.457031 42.183594 L 240.980469 74.179688 Z M 259.457031 106.175781 " fill-opacity="1" fill-rule="nonzero"/></g><g clip-path="url(#84e2f15e79)"><path fill="#ff751f" d="M 183.898438 301.871094 L 146.8125 301.871094 L 128.269531 333.992188 L 146.8125 366.109375 L 183.898438 366.109375 L 202.4375 333.992188 Z M 183.898438 301.871094 " fill-opacity="1" fill-rule="nonzero"/></g><g clip-path="url(#f5cdd9a0fa)"><path fill="#000000" d="M 183.898438 366.542969 L 146.8125 366.542969 C 146.65625 366.542969 146.519531 366.457031 146.429688 366.335938 L 127.890625 334.214844 C 127.820312 334.078125 127.820312 333.921875 127.890625 333.78125 L 146.429688 301.664062 C 146.5 301.523438 146.65625 301.457031 146.8125 301.457031 L 183.898438 301.457031 C 184.054688 301.457031 184.191406 301.542969 184.277344 301.664062 L 202.820312 333.78125 C 202.890625 333.921875 202.890625 334.078125 202.820312 334.214844 L 184.277344 366.335938 C 184.191406 366.457031 184.054688 366.542969 183.898438 366.542969 Z M 147.074219 365.675781 L 183.652344 365.675781 L 201.953125 333.992188 L 183.652344 302.304688 L 147.074219 302.304688 L 128.773438 333.992188 Z M 147.074219 365.675781 " fill-opacity="1" fill-rule="nonzero"/></g></svg>